<?xml version="1.0" encoding="utf-8"?>
<!-- Generator: Adobe Illustrator 18.1.1, SVG Export Plug-In . SVG Version: 6.00 Build 0)  -->
<svg version="1.1" id="レイヤー_1" xmlns="http://www.w3.org/2000/svg" xmlns:xlink="http://www.w3.org/1999/xlink" x="0px"
	 y="0px" viewBox="0 0 841.9 595.3" enable-background="new 0 0 841.9 595.3" xml:space="preserve">
<circle fill="none" stroke="#000000" stroke-width="2.8346" stroke-miterlimit="10" cx="420.9" cy="297.6" r="283.5"/>
<line fill="none" stroke="#000000" stroke-width="1.4173" stroke-miterlimit="10" x1="703.9" y1="297.6" x2="138" y2="297.6"/>
<line fill="none" stroke="#000000" stroke-width="1.4268" stroke-miterlimit="10" x1="420.9" y1="297.6" x2="420.9" y2="581.1"/>
<circle cx="420.9" cy="297.6" r="7.1"/>
<g>
	<path d="M409.1,272.2h4.5v5.6h-0.8v-0.7h-3.7v4h-0.8v-4h-3.6v0.8h-0.8v-5.7h4.4V270l1.1,0.1c0,0.1-0.1,0.1-0.2,0.2V272.2z
		 M404.6,276.3h3.6V273h-3.6V276.3z M409.1,276.3h3.7V273h-3.7V276.3z"/>
	<path d="M414.9,278.8c0.8-1.1,1.2-2.9,1.4-4.4l0.8,0.2c-0.2,1.6-0.6,3.6-1.5,4.7L414.9,278.8z M418.4,273.4l1.1,0.1
		c0,0.1-0.1,0.1-0.2,0.2v5.9c0,0.6,0.1,0.7,0.8,0.7h2.4c0.7,0,0.9-0.4,0.9-2.6c0.2,0.2,0.5,0.3,0.8,0.4c-0.1,2.3-0.4,3-1.7,3H420
		c-1.2,0-1.6-0.3-1.6-1.4V273.4z M422.7,272.8c-0.9-0.7-2.7-1.6-4.2-2.1l0.5-0.6c1.5,0.5,3.2,1.4,4.2,2L422.7,272.8z M425.7,278.9
		c-0.3-1.3-1.2-3.2-2.2-4.6l0.7-0.3c1.1,1.4,2,3.2,2.3,4.5L425.7,278.9z"/>
	<path d="M438,275.5c0,3.2-1.8,4.8-4,4.8c-2.3,0-3.9-1.8-3.9-4.6c0-3,1.7-4.8,4-4.8C436.5,270.8,438,272.7,438,275.5z M431.3,275.6
		c0,1.9,1,3.8,2.9,3.8c1.9,0,2.9-1.8,2.9-3.9c0-1.8-0.9-3.9-2.9-3.9C432.1,271.7,431.3,273.6,431.3,275.6z"/>
</g>
<g>
	<path d="M441.3,441v0.8h-5v3.4h-0.8v-3.4h-5V441h5v-2.2h-4.2V438h4.2v-3.9l1.1,0.1c0,0.1-0.1,0.1-0.2,0.2v3.7h4.3v0.8h-4.3v2.2
		H441.3z M432.3,434.4c0.6,0.9,1.2,2,1.5,2.7l-0.8,0.3c-0.2-0.7-0.9-1.9-1.4-2.8L432.3,434.4z M440.3,434.8c0,0.1-0.1,0.1-0.3,0.1
		c-0.4,0.8-1.1,1.9-1.6,2.6c0,0-0.7-0.3-0.7-0.3c0.5-0.8,1.2-2,1.6-2.9L440.3,434.8z"/>
	<path d="M444,439.8c-0.4,0.6-0.9,1.1-1.4,1.5c-0.1-0.2-0.3-0.5-0.5-0.7c1-0.9,2.2-2.4,3-3.9l0.9,0.4c0,0.1-0.1,0.1-0.3,0.1
		c-0.3,0.5-0.6,1-1,1.5l0.2,0.1c0,0.1-0.1,0.1-0.3,0.2v6.3H444V439.8z M445.8,434.5c0,0.1-0.1,0.1-0.3,0.1c-0.7,0.8-1.8,2-2.8,2.7
		c-0.1-0.2-0.3-0.5-0.5-0.6c0.9-0.7,2-1.7,2.6-2.6L445.8,434.5z M452.3,434.7l0.5,0.3c0,0-0.1,0.1-0.1,0.1c-0.6,1.2-1.4,2.2-2.4,3
		c1,0.6,2.1,1.1,3.3,1.3c-0.2,0.2-0.4,0.5-0.5,0.7c-1.3-0.3-2.5-0.8-3.5-1.5c-1.1,0.7-2.3,1.2-3.6,1.6c-0.1-0.2-0.3-0.5-0.4-0.6
		c1.2-0.3,2.4-0.8,3.4-1.5c-0.8-0.7-1.5-1.5-2-2.5l0.6-0.2h-1.3v-0.7h5.9L452.3,434.7z M450,442.1v2h3.5v0.7h-7.8v-0.7h3.6v-2h-2.8
		v-0.7h2.8v-1.7l1,0.1c0,0.1-0.1,0.1-0.2,0.2v1.5h2.7v0.7H450z M447.7,435.5c0.4,0.9,1.1,1.6,1.9,2.2c0.8-0.6,1.5-1.4,2-2.2H447.7z"
		/>
	<path d="M460.8,438.5c-0.1,0-0.2,0-0.4,0c-1.1,0-1.6,1.1-1.6,2.2v3.5h-1v-4.6c0-0.7,0-1.3,0-2h0.9l0,1.3h0c0.3-0.8,1-1.4,1.8-1.4
		c0.1,0,0.2,0,0.3,0V438.5z"/>
</g>
<g>
	<path d="M172.8,277.8h1.9c0-0.3,0.1-0.7,0.1-1.1h-4.9V276h5c0-0.4,0.1-0.8,0.1-1.2l1.1,0.1c0,0.1-0.1,0.1-0.3,0.2
		c0,0.3,0,0.6-0.1,0.9h4.8v0.8h-4.9c0,0.4-0.1,0.7-0.2,1.1h3.7v5.7h-6.4V277.8z M180.7,284.6v0.8h-9.3v0.7h-0.8v-7.9l1,0.1
		c0,0.1-0.1,0.1-0.2,0.2v6.2H180.7z M178.4,279.5v-1.1h-4.8v1.1H178.4z M178.4,281.2v-1.1h-4.8v1.1H178.4z M178.4,282.9v-1.1h-4.8
		v1.1H178.4z"/>
	<path d="M183.4,280.6c-0.4,0.6-0.9,1.1-1.4,1.5c-0.1-0.2-0.3-0.5-0.5-0.7c1-0.9,2.2-2.4,3-3.9l0.9,0.4c0,0.1-0.1,0.1-0.3,0.1
		c-0.3,0.5-0.6,1-1,1.5l0.2,0.1c0,0.1-0.1,0.1-0.3,0.2v6.3h-0.8V280.6z M185.2,275.3c0,0.1-0.1,0.1-0.3,0.1c-0.7,0.8-1.8,2-2.8,2.7
		c-0.1-0.2-0.3-0.5-0.5-0.6c0.9-0.7,2-1.7,2.6-2.6L185.2,275.3z M191.6,275.5l0.5,0.3c0,0-0.1,0.1-0.1,0.1c-0.6,1.2-1.4,2.2-2.4,3
		c1,0.6,2.1,1.1,3.3,1.3c-0.2,0.2-0.4,0.5-0.5,0.7c-1.3-0.3-2.5-0.8-3.5-1.5c-1.1,0.7-2.3,1.2-3.6,1.6c-0.1-0.2-0.3-0.5-0.4-0.6
		c1.2-0.3,2.4-0.8,3.4-1.5c-0.8-0.7-1.5-1.5-2-2.5l0.6-0.2h-1.3v-0.7h5.9L191.6,275.5z M189.3,282.9v2h3.5v0.7H185v-0.7h3.6v-2h-2.8
		v-0.7h2.8v-1.7l1,0.1c0,0.1-0.1,0.1-0.2,0.2v1.5h2.7v0.7H189.3z M187.1,276.2c0.4,0.9,1.1,1.6,1.9,2.2c0.8-0.6,1.5-1.4,2-2.2H187.1
		z"/>
</g>
<g>
	<path d="M607.6,55.5v9.2c0,1-0.5,1.1-2.7,1.1c0-0.2-0.2-0.6-0.3-0.8c0.4,0,0.8,0,1.2,0c0.9,0,1,0,1-0.3v-3.9h-8.4v5h-0.8V55.5
		H607.6z M598.5,56.3V60h3.7v-3.7H598.5z M603,60h3.9v-3.7H603V60z"/>
	<path d="M619.1,55.4v9.4c0,1.1-0.6,1.1-2.6,1c0-0.2-0.2-0.5-0.3-0.8c0.4,0,0.8,0,1.1,0c0.9,0,1,0,1-0.3v-8.6h-7.2v3
		c0,2-0.2,4.7-1.6,6.6c-0.1-0.2-0.5-0.4-0.6-0.5c1.3-1.8,1.4-4.2,1.4-6.1v-3.8H619.1z M611.7,59.4h2.6v-1.3H612v-0.7h2.3v-1.1l1,0.1
		c0,0.1-0.1,0.1-0.2,0.2v0.9h2.4v0.7H615v1.3h2.7v0.7h-6V59.4z M617,64.3h-4V65h-0.8v-3.9h4.7V64.3z M616.3,61.8h-3.2v1.8h3.2V61.8z
		"/>
</g>
<g>
	<path d="M182,490.5l0.4,0.1l0,0.3c-0.2,3.2-0.3,4.3-0.6,4.7c-0.3,0.3-0.5,0.3-1.3,0.3c-0.3,0-0.6,0-0.9,0c0-0.2-0.1-0.5-0.2-0.8
		c0.6,0.1,1.3,0.1,1.5,0.1c0.5,0,0.7-0.2,0.9-3.9h-1.9l-0.1,0.5l-0.7-0.1c0.2-0.9,0.3-2.4,0.4-3.6h2.3v-2.1h-2.7v-0.8h3.5v3.9h-0.8
		v-0.4H180l-0.2,1.8h2L182,490.5z M184.1,485.9c1.7-0.3,3.6-0.8,4.6-1.2l0.7,0.6c0,0-0.1,0-0.2,0c-0.3,0.1-0.5,0.2-0.9,0.3
		c0.1,4.1,0.4,7.8,1.6,9.5c-0.2,0.1-0.5,0.5-0.6,0.7c-1.3-2-1.6-5.7-1.7-10c-0.6,0.2-1.4,0.3-2.1,0.5l0.9,0.1c0,0.1-0.1,0.1-0.2,0.1
		v7.5l1.2-0.1c-0.2-0.6-0.4-1.3-0.6-1.8l0.5-0.1c0.4,1.1,0.8,2.5,0.9,3.4l-0.6,0.2c0-0.3-0.1-0.6-0.2-1c-1.3,0.2-2.5,0.4-3.3,0.5
		c0,0.1-0.1,0.2-0.2,0.2l-0.3-0.9c0.5,0,1.1-0.1,1.7-0.2v-7.8c-0.5,0.1-0.9,0.2-1.4,0.2v2.5c0,2-0.2,4.7-1.5,6.8
		c-0.1-0.2-0.4-0.4-0.6-0.5c1.2-1.9,1.3-4.4,1.3-6.3v-3.4L184.1,485.9z"/>
</g>
<g>
	<path d="M298.8,423.4h-7.7c0,1.8-0.3,4.4-1.5,6.2c-0.2-0.1-0.5-0.3-0.7-0.4c1.3-1.8,1.4-4.2,1.4-5.9v-2.3h8.5V423.4z M289.1,419.3
		h10.8v0.7h-10.8V419.3z M290.9,428.2c0.7-0.2,1.7-0.6,2.7-1l0.1,0.6c-0.9,0.4-1.8,0.8-2.4,1c0,0.1,0,0.2-0.1,0.2L290.9,428.2z
		 M298,421.6h-6.9v1.2h6.9V421.6z M294.7,424.3v4.7c0,0.8-0.4,0.8-1.9,0.8c0-0.2-0.1-0.5-0.3-0.7c0.6,0,1,0,1.2,0s0.2,0,0.2-0.2v-4
		h-2.6v-0.7H294.7z M292.1,425.3c0.5,0.4,0.9,0.9,1.1,1.3l-0.6,0.4c-0.2-0.4-0.7-1-1.1-1.4L292.1,425.3z M298.1,427.7
		c-0.9,0.4-1.8,0.8-2.4,1.1c0,0.1,0,0.2-0.1,0.2c-0.1-0.1-0.1-0.2-0.4-0.7c0.7-0.2,1.8-0.7,2.8-1.1L298.1,427.7z M299.1,424.3v4.7
		c0,0.8-0.4,0.9-1.9,0.9c0-0.2-0.1-0.5-0.3-0.7c0.3,0,0.6,0,0.8,0c0.6,0,0.6,0,0.6-0.2v-4h-2.9v-0.7H299.1z M296.3,425.2
		c0.5,0.4,1,0.9,1.2,1.3l-0.6,0.4c-0.2-0.4-0.7-1-1.2-1.4L296.3,425.2z"/>
	<path d="M307.6,424.2h-1.3v5.6h-0.8v-5.6h-2.4c-0.1,2-0.4,4-1.8,5.7c-0.1-0.2-0.4-0.5-0.6-0.6c1.2-1.5,1.5-3.3,1.6-5.1h-1.4v-0.8
		h1.4v-3.3h-1.2v-0.8h6.3v0.8h-1.1v3.3h1.3V424.2z M303.1,423.5h2.4v-3.3h-2.4V423.5z M312.3,426.2c0,0.1-0.1,0.1-0.2,0.1
		c-0.9,1.4-2.6,2.8-4.4,3.6c-0.1-0.2-0.4-0.5-0.6-0.6c1.7-0.7,3.4-2,4.3-3.4L312.3,426.2z M311.6,419.3c0,0.1-0.1,0.1-0.2,0.1
		c-0.8,0.9-2.1,2.1-3.2,2.7c-0.1-0.2-0.4-0.4-0.6-0.6c1.1-0.6,2.4-1.7,3.1-2.6L311.6,419.3z M312,422.6c0,0.1-0.1,0.1-0.2,0.1
		c-0.9,1-2.3,2.2-3.6,2.9c-0.1-0.2-0.4-0.4-0.6-0.6c1.2-0.6,2.7-1.8,3.5-2.8L312,422.6z"/>
</g>
</svg>
